# xmcd CD database file
#
# Track frame offsets:
#	150
#	18100
#	37097
#	56218
#	79730
#	102712
#	119357
#	137677
#	158132
#	179346
#	193903
#	212801
#
# Disc length: 3154 seconds
#
# Revision: 0
# Processed by: cddbd v1.5.2PL0 Copyright (c) Steve Scherf et al.
# Submitted via: CDex 1.70beta2
#
DISCID=ae0c500c
DTITLE=Martin Taylor - Double Standards
DYEAR=2008
DGENRE=Jazz
TTITLE0=Triste
TTITLE1=Bluesette
TTITLE2=Young And Foolish
TTITLE3=Drop Me Off At Harlem
TTITLE4=Alfie
TTITLE5=Jive At Five
TTITLE6=Someone To Watch Over Me
TTITLE7=Alice In Wonderland
TTITLE8=Estate
TTITLE9=When I Take My Sugar To Tea
TTITLE10=I Fall In Love Too Easily
TTITLE11=Just Friends
EXTD=YEAR: 2008
EXTT0=
EXTT1=
EXTT2=
EXTT3=
EXTT4=
EXTT5=
EXTT6=
EXTT7=
EXTT8=
EXTT9=
EXTT10=
EXTT11=
PLAYORDER=
